/* XPM */
static char * 2_xpm[] = {
"32 32 20 1",
" 	c #4B4B4B",
".	c #8B8B8B",
"+	c #FDFDFD",
"@	c #5C5C5C",
"#	c #CACACA",
"$	c #D8D8D8",
"%	c #4C4C4C",
"&	c #4E4E4E",
"*	c #5D5D5D",
"=	c #4D4D4D",
"-	c #D1D1D1",
";	c #575757",
">	c #595959",
",	c #FFFFFF",
"'	c #ECECEC",
")	c #585858",
"!	c #545454",
"~	c #7B7B7B",
"{	c #515151",
"]	c #505050",
" .+@                         #$%",
" .+@                         #$%",
" .+@                         #$%",
" .+@                         #$%",
" .+@                         #$%",
" .+@                         #$%",
" .+@                         #$%",
" .+@                         #$%",
" .+@            %            #$%",
" .+@           &*=           #$%",
" .+@          %@-;           #$%",
" .+@          %*+>           #$%",
" .+@          %*,>           #$%",
" .+@          %*,>           #$%",
" .+@          %*,>           #$%",
" .+@          %*,>           #$%",
" .+@          %*,>           #$%",
" .+@          %*,>           #$%",
" .+@          %*,>           #$%",
" .+@          %@')           #$%",
" .+@           !~{           #$%",
" .+@           %]%           #$%",
" .+@                         #$%",
" .+@                         #$%",
" .+@                         #$%",
" .+@                         #$%",
" .+@                         #$%",
" .+@                         #$%",
" .+@                         #$%",
" .+@                         #$%",
" .+@                         #$%",
" .+@                         #$%"};
