/* XPM */
static char * 2cv_front_xpm[] = {
"32 32 458 2",
"  	c #4B4B4B",
". 	c #8B8B8B",
"+ 	c #FDFDFD",
"@ 	c #5C5C5C",
"# 	c #CACACA",
"$ 	c #D8D8D8",
"% 	c #4C4C4C",
"& 	c #515151",
"* 	c #525252",
"= 	c #535354",
"- 	c #555556",
"; 	c #565657",
"> 	c #575758",
", 	c #595959",
"' 	c #59595A",
") 	c #5A5A5B",
"! 	c #5E5E5E",
"~ 	c #606061",
"{ 	c #5D5D5D",
"] 	c #4D4D4E",
"^ 	c #5B5A59",
"/ 	c #757476",
"( 	c #7F7E80",
"_ 	c #7F7D7F",
": 	c #7D7C7D",
"< 	c #7C7A7E",
"[ 	c #7B7A7E",
"} 	c #7A797D",
"| 	c #79777B",
"1 	c #777679",
"2 	c #767579",
"3 	c #757478",
"4 	c #757475",
"5 	c #747272",
"6 	c #5E5E5D",
"7 	c #4E4E4E",
"8 	c #797971",
"9 	c #62615A",
"0 	c #555550",
"a 	c #504F4D",
"b 	c #515050",
"c 	c #535250",
"d 	c #54534F",
"e 	c #54544F",
"f 	c #555551",
"g 	c #55544F",
"h 	c #53534E",
"i 	c #54534E",
"j 	c #53524D",
"k 	c #64615B",
"l 	c #797871",
"m 	c #4F4E4E",
"n 	c #535352",
"o 	c #93928A",
"p 	c #8C8C85",
"q 	c #969894",
"r 	c #8A8A8A",
"s 	c #8A8B8D",
"t 	c #8C8C90",
"u 	c #8F8F94",
"v 	c #949499",
"w 	c #96969B",
"x 	c #909094",
"y 	c #8A8A8E",
"z 	c #87878A",
"A 	c #848588",
"B 	c #7F8084",
"C 	c #7D7C79",
"D 	c #8B897F",
"E 	c #555453",
"F 	c #5D5D5A",
"G 	c #8F8E85",
"H 	c #868688",
"I 	c #848589",
"J 	c #797A7C",
"K 	c #707070",
"L 	c #6D6E6F",
"M 	c #6E6F6F",
"N 	c #707171",
"O 	c #707172",
"P 	c #6E6F70",
"Q 	c #6B6C6D",
"R 	c #6A6B6D",
"S 	c #717174",
"T 	c #787B82",
"U 	c #7B7D7F",
"V 	c #828279",
"W 	c #5A5A57",
"X 	c #6E6F69",
"Y 	c #94938C",
"Z 	c #868586",
"` 	c #7F817E",
" .	c #656564",
"..	c #575757",
"+.	c #545453",
"@.	c #5A5958",
"#.	c #6A6A69",
"$.	c #626161",
"%.	c #545353",
"&.	c #545352",
"*.	c #5E5D5C",
"=.	c #767575",
"-.	c #7E7C7B",
";.	c #8B887E",
">.	c #64625E",
",.	c #515150",
"'.	c #535353",
").	c #4D4C4C",
"!.	c #858476",
"~.	c #C9C8A6",
"{.	c #B5B69C",
"].	c #B1B39D",
"^.	c #B6B5A5",
"/.	c #ABAA9D",
"(.	c #A8A795",
"_.	c #B1B09A",
":.	c #AFAD99",
"<.	c #B5B3A3",
"[.	c #B1AEA0",
"}.	c #9E9D8D",
"|.	c #ADAD95",
"1.	c #AFAF95",
"2.	c #ACAC91",
"3.	c #AEB08C",
"4.	c #C1BF97",
"5.	c #8B8A7B",
"6.	c #797776",
"7.	c #767470",
"8.	c #595856",
"9.	c #4D4D4D",
"0.	c #949283",
"a.	c #A5A184",
"b.	c #96917A",
"c.	c #A49F88",
"d.	c #AAA68C",
"e.	c #B2AD8F",
"f.	c #BEBA97",
"g.	c #C9C6A5",
"h.	c #C9C7AA",
"i.	c #CAC7AC",
"j.	c #C5C2A3",
"k.	c #B5B191",
"l.	c #A9A586",
"m.	c #A29E81",
"n.	c #99967B",
"o.	c #8A866D",
"p.	c #9A947B",
"q.	c #908D82",
"r.	c #676665",
"s.	c #63625F",
"t.	c #525251",
"u.	c #50504F",
"v.	c #93907F",
"w.	c #C4BE8F",
"x.	c #E2DCA7",
"y.	c #EFEBC2",
"z.	c #F2EDC9",
"A.	c #F4EECB",
"B.	c #F4F0CA",
"C.	c #F2F1CA",
"D.	c #D3D0B1",
"E.	c #E3DFBC",
"F.	c #F3EEC7",
"G.	c #F3EEC6",
"H.	c #F1EDC4",
"I.	c #ECE9C0",
"J.	c #E7E4B3",
"K.	c #CAC48C",
"L.	c #B3A983",
"M.	c #8E897A",
"N.	c #4F4F4E",
"O.	c #545454",
"P.	c #797975",
"Q.	c #ADAA9B",
"R.	c #BCB58F",
"S.	c #D1C892",
"T.	c #F3EDB9",
"U.	c #F2ECB7",
"V.	c #F0EAAF",
"W.	c #EEE7A6",
"X.	c #EAE29B",
"Y.	c #DED391",
"Z.	c #E1D590",
"`.	c #E8E096",
" +	c #ECE4A3",
".+	c #EFE8AC",
"++	c #F0E8B4",
"@+	c #EDE3B5",
"#+	c #C2B888",
"$+	c #ADA58B",
"%+	c #9B998A",
"&+	c #6E6E6A",
"*+	c #727273",
"=+	c #9E9DA0",
"-+	c #909286",
";+	c #888A6D",
">+	c #8D8A70",
",+	c #AEA775",
"'+	c #E4D993",
")+	c #EBE1A0",
"!+	c #EBE3A0",
"~+	c #ECE2A3",
"{+	c #EBE29A",
"]+	c #E8DF93",
"^+	c #E5DB8B",
"/+	c #E3D987",
"(+	c #E4D98A",
"_+	c #E2D786",
":+	c #E2D789",
"<+	c #D5C984",
"[+	c #A39C76",
"}+	c #878869",
"|+	c #7D7F62",
"1+	c #969690",
"2+	c #999999",
"3+	c #767676",
"4+	c #4F4F4F",
"5+	c #626162",
"6+	c #858489",
"7+	c #838288",
"8+	c #888A83",
"9+	c #8F927E",
"0+	c #848579",
"a+	c #7F7B62",
"b+	c #CEC287",
"c+	c #EDE4B2",
"d+	c #EAE3B2",
"e+	c #E9DFAA",
"f+	c #E4D9A1",
"g+	c #DED498",
"h+	c #DBD191",
"i+	c #DAD38D",
"j+	c #DDD48B",
"k+	c #DED284",
"l+	c #DACC81",
"m+	c #B2A86E",
"n+	c #7D786E",
"o+	c #7C8075",
"p+	c #7B7C72",
"q+	c #747371",
"r+	c #8D8D8D",
"s+	c #979797",
"t+	c #FCFCFC",
"u+	c #535355",
"v+	c #4A494D",
"w+	c #716F76",
"x+	c #6A6873",
"y+	c #38383B",
"z+	c #292C2B",
"A+	c #3E3D34",
"B+	c #A69E6B",
"C+	c #D0CB9C",
"D+	c #B5B491",
"E+	c #97937A",
"F+	c #7D7B6B",
"G+	c #716E62",
"H+	c #6E6B5F",
"I+	c #7A7566",
"J+	c #948F74",
"K+	c #B4AC82",
"L+	c #C7BA79",
"M+	c #8D8451",
"N+	c #33312A",
"O+	c #222322",
"P+	c #2F2F2E",
"Q+	c #3C3E3D",
"R+	c #3A3838",
"S+	c #353434",
"T+	c #4E4E4F",
"U+	c #505051",
"V+	c #303034",
"W+	c #595D65",
"X+	c #62656D",
"Y+	c #505056",
"Z+	c #4C4C54",
"`+	c #5A5C5A",
" @	c #989062",
".@	c #A19669",
"+@	c #504F47",
"@@	c #2C2B2B",
"#@	c #2B2B2B",
"$@	c #454543",
"%@	c #292828",
"&@	c #2A2D29",
"*@	c #625E50",
"=@	c #A79C69",
"-@	c #827850",
";@	c #4D4B4D",
">@	c #454548",
",@	c #515153",
"'@	c #595B5E",
")@	c #474649",
"!@	c #242426",
"~@	c #4C4C4D",
"{@	c #525253",
"]@	c #1F1C1F",
"^@	c #4B382F",
"/@	c #4A413E",
"(@	c #45474D",
"_@	c #4F5057",
":@	c #616363",
"<@	c #8B8460",
"[@	c #A69B6E",
"}@	c #5A5950",
"|@	c #29292C",
"1@	c #2C2B2E",
"2@	c #323233",
"3@	c #302F30",
"4@	c #2E2D2C",
"5@	c #2C2D2C",
"6@	c #7C7867",
"7@	c #ACA26B",
"8@	c #817A5E",
"9@	c #68676C",
"0@	c #5F5F63",
"a@	c #5B5A5C",
"b@	c #60514D",
"c@	c #4E3E38",
"d@	c #1E1E1F",
"e@	c #4B4C4D",
"f@	c #272427",
"g@	c #482F22",
"h@	c #322018",
"i@	c #0E1215",
"j@	c #1E1E20",
"k@	c #3D3D38",
"l@	c #6F6B4C",
"m@	c #A39C70",
"n@	c #848379",
"o@	c #686869",
"p@	c #707071",
"q@	c #7B7B7C",
"r@	c #7B7B7B",
"s@	c #7A7A7B",
"t@	c #797977",
"u@	c #A39F8E",
"v@	c #ADA471",
"w@	c #706B4E",
"x@	c #464647",
"y@	c #3F3E40",
"z@	c #2E2D30",
"A@	c #3A2A22",
"B@	c #3C2B22",
"C@	c #272727",
"D@	c #4B4C4C",
"E@	c #333236",
"F@	c #0C0C0F",
"G@	c #040405",
"H@	c #010102",
"I@	c #050507",
"J@	c #2F2F29",
"K@	c #54533B",
"L@	c #928F70",
"M@	c #9A9999",
"N@	c #9B9A9D",
"O@	c #A2A2A4",
"P@	c #A2A1A4",
"Q@	c #A0A0A2",
"R@	c #A4A4A6",
"S@	c #97979A",
"T@	c #9A9692",
"U@	c #978E74",
"V@	c #524E3E",
"W@	c #232420",
"X@	c #121212",
"Y@	c #0B0B0F",
"Z@	c #0A090D",
"`@	c #0F0D12",
" #	c #3B3C3F",
".#	c #4E4F50",
"+#	c #3F3F3F",
"@#	c #252526",
"##	c #171719",
"$#	c #19191B",
"%#	c #2F302D",
"&#	c #424138",
"*#	c #828172",
"=#	c #909091",
"-#	c #969598",
";#	c #A2A2A5",
">#	c #919194",
",#	c #8D8C8F",
"'#	c #858481",
")#	c #797569",
"!#	c #38362F",
"~#	c #282827",
"{#	c #242425",
"]#	c #262626",
"^#	c #2A2A2B",
"/#	c #373738",
"(#	c #474647",
"_#	c #505050",
":#	c #5F5F5F",
"<#	c #444445",
"[#	c #4B4B4D",
"}#	c #4C4C4E",
"|#	c #393A39",
"1#	c #5F605D",
"2#	c #616264",
"3#	c #606162",
"4#	c #646465",
"5#	c #626264",
"6#	c #5E5E61",
"7#	c #605F62",
"8#	c #606060",
"9#	c #5F605E",
"0#	c #61605F",
"a#	c #4C4C4A",
"b#	c #5D5D5C",
"c#	c #686868",
"d#	c #737373",
"e#	c #40403F",
"f#	c #3D3D3E",
"g#	c #373739",
"h#	c #484849",
"i#	c #424243",
"j#	c #3A3B3B",
"k#	c #4A4A4C",
"l#	c #474849",
"m#	c #484848",
"n#	c #494949",
"o#	c #464547",
"p#	c #3F3F40",
"q#	c #393938",
"r#	c #3B3C3E",
"s#	c #383839",
"t#	c #2B2B2D",
"u#	c #2E2E2F",
"v#	c #2A2A2A",
"w#	c #343434",
"x#	c #404040",
"y#	c #404041",
"z#	c #262627",
"A#	c #202021",
"B#	c #19191A",
"C#	c #4A4B4B",
"D#	c #454545",
"E#	c #444444",
"F#	c #434343",
"G#	c #4A4A4A",
"H#	c #3A3A3B",
"I#	c #161617",
"J#	c #141415",
"K#	c #181819",
"L#	c #313132",
"M#	c #2B2B2C",
"N#	c #3E3E3E",
"O#	c #7E7E7E",
"P#	c #323232",
"Q#	c #464646",
"R#	c #28272A",
"S#	c #2E2E2E",
"T#	c #626262",
"U#	c #373737",
"V#	c #2D2D2D",
"W#	c #474747",
"X#	c #3D3D3D",
"Y#	c #383838",
"  . + @                                                   # $ % ",
"  . + @                                                   # $ % ",
"  . + @                                                   # $ % ",
"  . + @                                                   # $ % ",
"  . + @         % & * * = - ; > , ' ) @ ! ~ { ]           # $ % ",
"  . + @       % ^ / ( _ : < [ } | 1 2 2 3 4 5 6 %         # $ % ",
"  . + @       7 8 9 0 a b c d e f g h e i j k l m         # $ % ",
"  . + @       n o p q r s t u v w x y z A B C D E         # $ % ",
"  . + @       F G H I J K L M N O P Q R S T U V W         # $ % ",
"  . + @       X Y Z `  ...+.n @.#.$.%.&.*.=.-.;.>.,.'.).  # $ % ",
"  . + @       !.~.{.].^./.(._.:.<.[.}.|.1.2.3.4.5.6.7.8.  # $ % ",
"  . + @     9.0.a.b.c.d.e.f.g.h.i.j.k.l.m.n.o.p.q.r.s.t.  # $ % ",
"  . + @     u.v.w.x.y.z.A.B.C.D.E.F.G.H.I.J.K.L.M.N.      # $ % ",
"  . + @ % O.P.Q.R.S.T.U.V.W.X.Y.Z.`. +.+++@+#+$+%+&+7     # $ % ",
"  . + ! *+=+-+;+>+,+'+)+!+~+{+]+^+/+(+_+:+<+[+}+|+1+2+3+4+# $ % ",
"  . + 5+6+7+8+9+0+a+b+c+d+e+f+g+h+i+j+k+l+m+n+o+p+q+r+s+..# $ % ",
"  . t+u+v+w+x+y+z+A+B+C+D+E+F+G+H+I+J+K+L+M+N+O+P+Q+R+S+T+# $ % ",
"  . t+U+V+W+X+Y+Z+`+ @.@+@@@#@n $@%@&@*@=@-@;@>@,@'@)@!@~@# $ % ",
"  . t+{@]@^@/@(@_@:@<@[@}@|@1@2@3@4@5@6@7@8@9@0@a@b@c@d@e@# $ % ",
"  . t+; f@g@h@i@j@k@l@m@n@o@p@q@r@s@t@u@v@w@x@y@z@A@B@C@D@# $ % ",
"  . + ) E@F@G@H@I@J@K@L@M@N@O@P@Q@R@S@T@U@V@W@X@Y@Z@`@ #.## $ % ",
"  . + { +#@###$#$#%#&#*#=#-#;#>#>#,#z '#)#!#~#{#]#^#/#(#_## $ % ",
"  . + :#<#' [#U+}#|#_#1#2#3#4#5#6#7#8#9#0#a#,.{ b#c#d#e#4+# $ % ",
"  . + { f#g#h#~@i#j#e@k#l#m#n#% ] o#p#q#r#s#t#u##@v#w#x#9.# $ % ",
"  . + { y#z#d@A#B#+#C#n#m#D#E#E#E#F#D#m#G#n#H#I#J#K#L#F#% # $ % ",
"  . + ! F#M#<#{ N#G#                        G#m#O#E#P#D#  # $ % ",
"  . + @ Q#R#S#                                7 T#U#V#W#  # $ % ",
"  . + @ n#w#X#                                  G#Y#w#n#  # $ % ",
"  . + @                                                   # $ % ",
"  . + @                                                   # $ % ",
"  . + @                                                   # $ % ",
"  . + @                                                   # $ % "};
