/* XPM */
static char * 5_xpm[] = {
"32 32 44 1",
" 	c #4B4B4B",
".	c #525252",
"+	c #858585",
"@	c #949494",
"#	c #969696",
"$	c #959595",
"%	c #535353",
"&	c #EFEFEF",
"*	c #EEEEEE",
"=	c #EDEDED",
"-	c #ECECEC",
";	c #888888",
">	c #757575",
",	c #747474",
"'	c #4E4E4E",
")	c #4D4D4D",
"!	c #4C4C4C",
"~	c #515151",
"{	c #737373",
"]	c #767676",
"^	c #6A6A6A",
"/	c #6C6C6C",
"(	c #E8E8E8",
"_	c #C1C1C1",
":	c #686868",
"<	c #6D6D6D",
"[	c #E9E9E9",
"}	c #808080",
"|	c #6B6B6B",
"1	c #606060",
"2	c #6E6E6E",
"3	c #EAEAEA",
"4	c #DFDFDF",
"5	c #555555",
"6	c #505050",
"7	c #5D5D5D",
"8	c #5F5F5F",
"9	c #5E5E5E",
"0	c #BEBEBE",
"a	c #C5C5C5",
"b	c #C4C4C4",
"c	c #D0D0D0",
"d	c #D6D6D6",
"e	c #CFCFCF",
" ...............................",
".+@############################$",
"%$&*===========================-",
".#*;>>>>>>>>>>>>>>>>>>>>>>>>>>>,",
".#=>')))))))))))))))))))))!     ",
".#=>)                           ",
".#=>)                           ",
".#=>)                           ",
".#=>)                           ",
".#=>)                           ",
".#=>)                           ",
".#=>)                           ",
".#=>)                           ",
".#=>)                           ",
".#=>)          !)'''')          ",
".#=>)          ~{]]]>^.         ",
".#=>)          /=*==(_:)        ",
".#=>)          <[}||^1'         ",
".#=>)         !23|              ",
".#=>)         !|4:              ",
".#=>)          5+%              ",
".#=>)          !6!              ",
".#=>)                           ",
".#=>)                           ",
"%#=>)                           ",
"%#=>)                           ",
"%#=>)                           ",
".#=>!                           ",
".#=>                        !789",
".#=>                        !0ab",
".#=>                        )cde",
".$-,                        )cc{"};
