/* XPM */
static char * 8_xpm[] = {
"32 32 55 1",
" 	c #525252",
".	c #959595",
"+	c #ECECEC",
"@	c #717171",
"#	c #4C4C4C",
"$	c #4B4B4B",
"%	c #4F4F4F",
"&	c #C4C4C4",
"*	c #CECECE",
"=	c #636363",
"-	c #969696",
";	c #EDEDED",
">	c #727272",
",	c #C9C9C9",
"'	c #D4D4D4",
")	c #7A7A7A",
"!	c #5B5B5B",
"~	c #E8E8E8",
"{	c #F1F1F1",
"]	c #EBEBEB",
"^	c #505050",
"/	c #707070",
"(	c #737373",
"_	c #757575",
":	c #4D4D4D",
"<	c #676767",
"[	c #4E4E4E",
"}	c #696969",
"|	c #D5D5D5",
"1	c #656565",
"2	c #6F6F6F",
"3	c #6B6B6B",
"4	c #6D6D6D",
"5	c #E7E7E7",
"6	c #878787",
"7	c #767676",
"8	c #6A6A6A",
"9	c #5A5A5A",
"0	c #9F9F9F",
"a	c #E9E9E9",
"b	c #C1C1C1",
"c	c #686868",
"d	c #858585",
"e	c #515151",
"f	c #6C6C6C",
"g	c #D7D7D7",
"h	c #535353",
"i	c #5D5D5D",
"j	c #5F5F5F",
"k	c #5E5E5E",
"l	c #BEBEBE",
"m	c #C5C5C5",
"n	c #CFCFCF",
"o	c #D6D6D6",
"p	c #747474",
" .+@#$$$$$$$$$$$$$$$$$$$$$$$%&*=",
" -;>#$$$$$$$$$$$$$$$$$$$$$$$%,')",
" -;>#$$$$$$$$$$$$$$$$$$$$$$$!~{]",
" -;>#$$$$$$$$$$$$$$$$$$$$$$$^/(>",
" -;(#$$$$$$$$$$$$$$$$$$$$$$$$$$$",
" -;_:$$$$$$$$$$$$$$$$$$$$$$$$$$$",
" -;_:$$$$$$$$$$$$$$$$$$$$$$$$$$$",
" -;_:$$$$$$$$$$$$$$$$$$$$$$$$$$$",
" -;_:$$$$$$$$$$$#$$$$$$$$$$$$$$$",
" -;_:$$$$$$$$$$%<[$$$$$$$$$$$$$$",
" -;_:$$$$$$$$$#}|1$$$$$$$$$$$$$$",
" -;_:$$$$$$$$$#2]3$$$$$$$$$$$$$$",
" -;_:$$$$$$$$$#2;3$$$$$$$$$$$$$$",
" -;_:$$$$$$$$$#2;3$$$$$$$$$$$$$$",
" -;_:$$$$$$$$$#2;4[[[:$$$$$$$$$$",
" -;_:$$$$$$$$$#45677_8 $$$$$$$$$",
" -;_:$$$$$$$$$#90~;;abc:$$$$$$$$",
" -;_:$$$$$$$$$#45d((><e$$$$$$$$$",
" -;_:$$$$$$$$$#2;f####$$$$$$$$$$",
" -;_:$$$$$$$$$#2;3$$$$$$$$$$$$$$",
" -;_:$$$$$$$$$#2;3$$$$$$$$$$$$$$",
" -;_:$$$$$$$$$#2+3$$$$$$$$$$$$$$",
" -;_:$$$$$$$$$#}g1$$$$$$$$$$$$$$",
" -;_:$$$$$$$$$$%}%$$$$$$$$$$$$$$",
"h-;_:$$$$$$$$$$$#$$$$$$$$$$$$$$$",
"h-;_:$$$$$$$$$$$$$$$$$$$$$$$$$$$",
"h-;_:$$$$$$$$$$$$$$$$$$$$$$$$$$$",
" -;_:$$$$$$$$$$$$$$$$$$$$$$$$$$$",
" -;_:$$$$$$$$$$$$$$$$$$$$$$$:ijk",
" -;_:$$$$$$$$$$$$$$$$$$$$$$$:lm&",
" -;_:$$$$$$$$$$$$$$$$$$$$$$$:non",
" .+p#$$$$$$$$$$$$$$$$$$$$$$$:mn("};
