/* XPM */
static char * 2cv_back_xpm[] = {
"32 32 415 2",
"  	c #454545",
". 	c #808080",
"+ 	c #EAEAEA",
"@ 	c #555555",
"# 	c #BBBBBB",
"$ 	c #C8C8C8",
"% 	c #464646",
"& 	c #5C5C5D",
"* 	c #6E6E6E",
"= 	c #727272",
"- 	c #737374",
"; 	c #737373",
"> 	c #717171",
", 	c #707070",
"' 	c #6D6D6D",
") 	c #6C6C6E",
"! 	c #6C6C6D",
"~ 	c #6B6B6C",
"{ 	c #69696A",
"] 	c #474747",
"^ 	c #6A6A6B",
"/ 	c #909090",
"( 	c #9A9A9B",
"_ 	c #9B9B9D",
": 	c #9A9A9A",
"< 	c #999999",
"[ 	c #989898",
"} 	c #979797",
"| 	c #969698",
"1 	c #959597",
"2 	c #949496",
"3 	c #8E8E90",
"4 	c #484848",
"5 	c #8F8F8F",
"6 	c #757575",
"7 	c #7B7B7D",
"8 	c #747476",
"9 	c #727274",
"0 	c #707072",
"a 	c #6D6D6F",
"b 	c #69696B",
"c 	c #6E6E70",
"d 	c #78777B",
"e 	c #767678",
"f 	c #939394",
"g 	c #505050",
"h 	c #4D4D4E",
"i 	c #87868A",
"j 	c #565658",
"k 	c #333434",
"l 	c #2A2B2D",
"m 	c #292A2E",
"n 	c #29292D",
"o 	c #2B2A2E",
"p 	c #2E2D2F",
"q 	c #2C2C2D",
"r 	c #2E2E31",
"s 	c #2B2B2D",
"t 	c #2C2C2E",
"u 	c #2E2E30",
"v 	c #333332",
"w 	c #565656",
"x 	c #848486",
"y 	c #5B5B5B",
"z 	c #545455",
"A 	c #6C6A6F",
"B 	c #5D5D5F",
"C 	c #525352",
"D 	c #4A4B4D",
"E 	c #3E3F41",
"F 	c #393A3C",
"G 	c #3A3A3C",
"H 	c #4A4A49",
"I 	c #464644",
"J 	c #4E4E4D",
"K 	c #3E3E3E",
"L 	c #3C3C3D",
"M 	c #3C3C3C",
"N 	c #3B3B3B",
"O 	c #41413D",
"P 	c #5E5E5C",
"Q 	c #646465",
"R 	c #5A5A59",
"S 	c #5A595D",
"T 	c #5C5C5E",
"U 	c #7B7D7B",
"V 	c #5E5F5F",
"W 	c #474748",
"X 	c #464647",
"Y 	c #4E4F4E",
"Z 	c #4F4F4D",
"` 	c #4C4C4B",
" .	c #454546",
"..	c #4C4D4A",
"+.	c #5C5C59",
"@.	c #525253",
"#.	c #5A5B59",
"$.	c #535354",
"%.	c #535255",
"&.	c #4B4945",
"*.	c #5A5B56",
"=.	c #5B5B58",
"-.	c #4E4E4A",
";.	c #4D4D49",
">.	c #51514C",
",.	c #54534E",
"'.	c #51514D",
").	c #4D4C47",
"!.	c #4B4A45",
"~.	c #4A4A44",
"{.	c #4A4944",
"].	c #4B4A46",
"^.	c #4A4843",
"/.	c #4F4E4C",
"(.	c #565754",
"_.	c #595A5A",
":.	c #89876F",
"<.	c #C4BD90",
"[.	c #C4BD8A",
"}.	c #C3BC89",
"|.	c #C3BB87",
"1.	c #C4BB87",
"2.	c #C3BB88",
"3.	c #C2BA87",
"4.	c #C1B985",
"5.	c #C0B884",
"6.	c #C2B986",
"7.	c #C1B885",
"8.	c #BFB883",
"9.	c #C1B78A",
"0.	c #A29C78",
"a.	c #5D5D59",
"b.	c #4C4C4C",
"c.	c #5C5C58",
"d.	c #A3A171",
"e.	c #E1D98B",
"f.	c #E2D987",
"g.	c #E3D988",
"h.	c #E4D887",
"i.	c #E4D886",
"j.	c #E3D786",
"k.	c #E3D785",
"l.	c #E2D785",
"m.	c #E4D986",
"n.	c #E3D886",
"o.	c #E3D885",
"p.	c #E3D781",
"q.	c #E3D585",
"r.	c #C2B87D",
"s.	c #625F5A",
"t.	c #494949",
"u.	c #5D5C5B",
"v.	c #ADAA78",
"w.	c #E8DD92",
"x.	c #E7DF90",
"y.	c #E8DE90",
"z.	c #E8DE8F",
"A.	c #E9DE8E",
"B.	c #E8DE8E",
"C.	c #E7DD8D",
"D.	c #E7DD8E",
"E.	c #E7DE8F",
"F.	c #E7DD8F",
"G.	c #E8DC8D",
"H.	c #E8DB8B",
"I.	c #C8C183",
"J.	c #5F5E57",
"K.	c #535353",
"L.	c #484849",
"M.	c #636264",
"N.	c #5A595B",
"O.	c #B5B381",
"P.	c #EAE19B",
"Q.	c #EBE297",
"R.	c #ECE297",
"S.	c #EDE296",
"T.	c #EDE298",
"U.	c #ECE198",
"V.	c #ECE197",
"W.	c #EEE29A",
"X.	c #EEE29B",
"Y.	c #EDE29A",
"Z.	c #ECE299",
"`.	c #EDE099",
" +	c #D2C991",
".+	c #615F58",
"++	c #686866",
"@+	c #4B4B4B",
"#+	c #6F6E70",
"$+	c #C7C5C8",
"%+	c #5B5C5B",
"&+	c #BFBC8C",
"*+	c #EDE4A3",
"=+	c #EDE69E",
"-+	c #EDE69C",
";+	c #EEE59F",
">+	c #EEE69E",
",+	c #EEE6A1",
"'+	c #EDE6A1",
")+	c #ECE69E",
"!+	c #F0E7A4",
"~+	c #EFE7A4",
"{+	c #EFE7A3",
"]+	c #EFE6A2",
"^+	c #EEE4A5",
"/+	c #D8D098",
"(+	c #65635C",
"_+	c #747473",
":+	c #7C7C7E",
"<+	c #939295",
"[+	c #525351",
"}+	c #C7C395",
"|+	c #EFE7A9",
"1+	c #EDE7A9",
"2+	c #EEE7A7",
"3+	c #F0E8A7",
"4+	c #F0E9A5",
"5+	c #F0E9A9",
"6+	c #F0E9A8",
"7+	c #F2EAAB",
"8+	c #F2EAAC",
"9+	c #F0EAAC",
"0+	c #F1EAA6",
"a+	c #F1E8AE",
"b+	c #DDD6A3",
"c+	c #65635B",
"d+	c #7F7F80",
"e+	c #727273",
"f+	c #3F3E41",
"g+	c #48484C",
"h+	c #494845",
"i+	c #CEC89D",
"j+	c #F1E9AE",
"k+	c #E9E5AD",
"l+	c #EAE6AD",
"m+	c #ECE4AD",
"n+	c #F2E9AB",
"o+	c #EFE7AC",
"p+	c #E8E1AF",
"q+	c #EFE9AE",
"r+	c #F4EBAF",
"s+	c #F3ECAE",
"t+	c #F2EBB1",
"u+	c #EEE7B1",
"v+	c #EFE8B2",
"w+	c #E2DBA8",
"x+	c #66635A",
"y+	c #4E4D51",
"z+	c #3F3F41",
"A+	c #4E4E4E",
"B+	c #2A2A2D",
"C+	c #515055",
"D+	c #4D4B49",
"E+	c #D0C9A0",
"F+	c #EBE1AB",
"G+	c #DED7AB",
"H+	c #DBD5A7",
"I+	c #DBD4A8",
"J+	c #EAE1AE",
"K+	c #EEE5AF",
"L+	c #E6DEAD",
"M+	c #C5BE9A",
"N+	c #DFDAA9",
"O+	c #EEE7AF",
"P+	c #EEE8AE",
"Q+	c #E4DCAF",
"R+	c #E9E0AD",
"S+	c #E4DCA8",
"T+	c #6C6A62",
"U+	c #605F65",
"V+	c #373739",
"W+	c #28282B",
"X+	c #59585E",
"Y+	c #514E51",
"Z+	c #A28975",
"`+	c #996245",
" @	c #8E6146",
".@	c #C7B47F",
"+@	c #A9A68C",
"@@	c #A3A298",
"#@	c #A7A69B",
"$@	c #A6A59A",
"%@	c #A5A49B",
"&@	c #9F9F92",
"*@	c #AAA79D",
"=@	c #A8A499",
"-@	c #AFAA96",
";@	c #C8BC8D",
">@	c #95755A",
",@	c #9C6754",
"'@	c #A68D6E",
")@	c #66625B",
"!@	c #5E5D63",
"~@	c #353436",
"{@	c #424242",
"]@	c #272729",
"^@	c #5E5C65",
"/@	c #585B5F",
"(@	c #A09074",
"_@	c #90492E",
":@	c #823C24",
"<@	c #BFA66D",
"[@	c #A39F90",
"}@	c #949396",
"|@	c #9C9C9F",
"1@	c #A5A5A8",
"2@	c #A09FA4",
"3@	c #A2A1A4",
"4@	c #9C9C9E",
"5@	c #A7A49F",
"6@	c #BCAC7B",
"7@	c #804931",
"8@	c #95422D",
"9@	c #A78666",
"0@	c #66665D",
"a@	c #4F5054",
"b@	c #2F2F30",
"c@	c #383838",
"d@	c #323234",
"e@	c #74757B",
"f@	c #7A797D",
"g@	c #A8A18D",
"h@	c #847263",
"i@	c #846763",
"j@	c #B4A983",
"k@	c #9A998F",
"l@	c #989794",
"m@	c #A0A19D",
"n@	c #9A9A97",
"o@	c #939391",
"p@	c #919191",
"q@	c #8F8E8C",
"r@	c #949594",
"s@	c #979690",
"t@	c #B6AA83",
"u@	c #866F5F",
"v@	c #866C57",
"w@	c #AEA087",
"x@	c #847C7B",
"y@	c #656465",
"z@	c #373738",
"A@	c #2D2D2E",
"B@	c #333335",
"C@	c #929196",
"D@	c #58585A",
"E@	c #4F4E51",
"F@	c #514F4F",
"G@	c #565254",
"H@	c #5A5856",
"I@	c #565558",
"J@	c #4E4E4C",
"K@	c #4E4E50",
"L@	c #4D4D50",
"M@	c #4D4E4F",
"N@	c #4E4F50",
"O@	c #505150",
"P@	c #575558",
"Q@	c #61615F",
"R@	c #67645F",
"S@	c #615F5C",
"T@	c #5E5E56",
"U@	c #66645D",
"V@	c #737173",
"W@	c #9B9B9A",
"X@	c #3F3F40",
"Y@	c #4D4D4D",
"Z@	c #313131",
"`@	c #686868",
" #	c #737473",
".#	c #6D6D6E",
"+#	c #706F6F",
"@#	c #767676",
"##	c #777777",
"$#	c #656565",
"%#	c #626262",
"&#	c #585858",
"*#	c #5F5F5E",
"=#	c #6C6C6C",
"-#	c #7E7E7E",
";#	c #7F7F7F",
">#	c #818182",
",#	c #797979",
"'#	c #343434",
")#	c #353535",
"!#	c #323232",
"~#	c #2C2C2C",
"{#	c #232323",
"]#	c #363636",
"^#	c #373737",
"/#	c #393939",
"(#	c #3D3D3D",
"_#	c #3D3D3E",
":#	c #202020",
"<#	c #1A1A1A",
"[#	c #252525",
"}#	c #262626",
"|#	c #4F4F4F",
"1#	c #434343",
"2#	c #444445",
"3#	c #303031",
"4#	c #313132",
"5#	c #2A2A2A",
"6#	c #222222",
"7#	c #272727",
"8#	c #2E2E2E",
"9#	c #525252",
"0#	c #383839",
"a#	c #303030",
"b#	c #282828",
"c#	c #414142",
"d#	c #292929",
"e#	c #444444",
"f#	c #424243",
"g#	c #404040",
"h#	c #414141",
"  . + @                                                   # $ % ",
"  . + @                                                   # $ % ",
"  . + @                                                   # $ % ",
"  . + @       % & * = - ; = > , * ' ) ! ~ { & ]           # $ % ",
"  . + @       ^ / ( _ _ _ : < [ } | 1 1 1 2 3 * %         # $ % ",
"  . + @     4 5 6 7 8 9 0 a a b ) a c 0 9 d e f g         # $ % ",
"  . + @     h i j k l m n o p q r s s t u v w x y         # $ % ",
"  . + @     z A B C D E F G H I J K L M N O P Q R         # $ % ",
"  . + @     @ S T U V W % X Y Z ` ] X %  ...+.@.#.        # $ % ",
"  . + @     $.%.&.*.=.-.;.;.>.,.'.).!.~.{.].^./.(.%       # $ % ",
"  . + @   X _.:.<.[.}.|.1.2.3.4.5.6.4.7.5.8.9.0.a.]       # $ % ",
"  . + @   b.c.d.e.f.g.h.i.i.j.k.l.m.n.k.o.p.q.r.s.t.      # $ % ",
"  . + @   h u.v.w.x.y.z.A.B.C.D.D.z.E.F.D.G.H.I.J.K.      # $ % ",
"  . + @ L.M.N.O.P.Q.R.R.S.T.U.V.T.W.X.W.Y.Z.`. +.+++@+    # $ % ",
"  . + z #+$+%+&+*+=+-+;+>+,+'+)+,+!+!+~+{+]+^+/+(+_+& 4   # $ % ",
"  . + K.:+<+[+}+|+1+2+|+3+4+3+5+6+7+7+8+9+0+a+b+c+d+e+@+  # $ % ",
"  . + @.f+g+h+i+j+k+l+m+n+7+o+p+q+r+s+t+u+q+v+w+x+y+z+ .  # $ % ",
"  . + A+B+C+D+E+F+G+H+I+J+K+L+M+N+O+P+u+p+Q+R+S+T+U+V+  % # $ % ",
"  . + h W+X+Y+Z+`+ @.@+@@@#@$@%@&@*@=@-@;@>@,@'@)@!@~@{@% # $ % ",
"  . + W ]@^@/@(@_@:@<@[@}@|@1@2@3@4@}@5@6@7@8@9@0@a@b@c@% # $ % ",
"  . +  .d@e@f@g@h@i@j@k@l@m@n@o@p@q@r@s@t@u@v@w@x@y@z@A@4 # $ % ",
"  . + 4 B@C@D@E@F@G@H@I@J@K@L@M@N@O@P@Q@R@S@T@U@V@W@{@X@  # $ % ",
"  . + Y@Z@`@ #.#+#@###' $#%#y &#*#=#-#;#>#>#. ;#;#,#c@{@  # $ % ",
"  . + g '#)#!#~#{#]#^#X@/#/#M M M (#_#M /#!#:#<#:#[#}#{@  # $ % ",
"  . + |#^#~#{#'#'#1#2#2#                  1#3#4#[#{#5#{@  # $ % ",
"  . + g ^#Z@6#1#                            2#2#!#7#8#1#  # $ % ",
"  . + 9#0#a#{#1#                                0#b#Z@c#  # $ % ",
"  . + $.^#d#~#e#                                M {#Z@c#  # $ % ",
"  . + @ f#g#{@                                  e#h#{@    # $ % ",
"  . + @                                                   # $ % ",
"  . + @                                                   # $ % ",
"  . + @                                                   # $ % "};
