/* XPM */
static char * 2cv_right_xpm[] = {
"32 32 293 2",
"  	c #4B4B4B",
". 	c #4C4C4C",
"+ 	c #D8D8D8",
"@ 	c #CACACA",
"# 	c #505050",
"$ 	c #6F6F71",
"% 	c #77787A",
"& 	c #747379",
"* 	c #7F7E7E",
"= 	c #9A9991",
"- 	c #BAB8A9",
"; 	c #C0BEAA",
"> 	c #ACA99C",
", 	c #A9A79C",
"' 	c #82827B",
") 	c #696967",
"! 	c #525253",
"~ 	c #656566",
"{ 	c #6D6D6E",
"] 	c #464647",
"^ 	c #545555",
"/ 	c #868473",
"( 	c #9A997E",
"_ 	c #8B8B79",
": 	c #91918C",
"< 	c #98978D",
"[ 	c #ADAC87",
"} 	c #6D6D5C",
"| 	c #91907E",
"1 	c #A5A38E",
"2 	c #AAAA9A",
"3 	c #555554",
"4 	c #6B6B6C",
"5 	c #5F5F60",
"6 	c #41423F",
"7 	c #B2B2B0",
"8 	c #B2B2A2",
"9 	c #878569",
"0 	c #A1A19B",
"a 	c #D7D7D6",
"b 	c #D8D8D6",
"c 	c #C9C9C6",
"d 	c #B5B49A",
"e 	c #A2A2A1",
"f 	c #9B9B9A",
"g 	c #999994",
"h 	c #9C9980",
"i 	c #B1B1A2",
"j 	c #5B5B5B",
"k 	c #676768",
"l 	c #41413D",
"m 	c #A5A5A5",
"n 	c #CFD0CD",
"o 	c #9F9D7B",
"p 	c #7C7C73",
"q 	c #CAC9C5",
"r 	c #C0BFA5",
"s 	c #D8D8D7",
"t 	c #B0AFA5",
"u 	c #ABAA89",
"v 	c #C7C5BA",
"w 	c #525251",
"x 	c #7E7E7C",
"y 	c #353537",
"z 	c #38393A",
"A 	c #717272",
"B 	c #686865",
"C 	c #C2BD91",
"D 	c #BBB890",
"E 	c #D8D7BA",
"F 	c #D7D5B9",
"G 	c #D6D4B7",
"H 	c #D3D1AE",
"I 	c #CDC89C",
"J 	c #D4D0B7",
"K 	c #D6D3B9",
"L 	c #D6D4BD",
"M 	c #C1BD9F",
"N 	c #CCC895",
"O 	c #D7D4A8",
"P 	c #B5B396",
"Q 	c #B4B192",
"R 	c #B7B59A",
"S 	c #B0AE95",
"T 	c #A19F8A",
"U 	c #878579",
"V 	c #585856",
"W 	c #7F8078",
"X 	c #757576",
"Y 	c #474849",
"Z 	c #757677",
"` 	c #646465",
" .	c #29292B",
"..	c #9C956F",
"+.	c #E5DA8E",
"@.	c #E7DD8C",
"#.	c #E6DD8C",
"$.	c #E7DC8C",
"%.	c #E5DA8B",
"&.	c #C7BB7A",
"*.	c #E4D98C",
"=.	c #E7DC8B",
"-.	c #E9DE8E",
";.	c #E9DF90",
">.	c #EAE08F",
",.	c #E8DD91",
"'.	c #C9C181",
").	c #D3CA89",
"!.	c #C7C287",
"~.	c #CFC88D",
"{.	c #D1CB8B",
"].	c #DFD998",
"^.	c #EBE6AB",
"/.	c #C1BC9D",
"(.	c #757573",
"_.	c #515151",
":.	c #64655F",
"<.	c #90908B",
"[.	c #7F7F80",
"}.	c #575859",
"|.	c #363738",
"1.	c #454545",
"2.	c #656568",
"3.	c #74705B",
"4.	c #DAD08A",
"5.	c #E3D787",
"6.	c #E2D789",
"7.	c #E3D889",
"8.	c #E1D586",
"9.	c #D6CC7F",
"0.	c #E4D887",
"a.	c #E7DA8A",
"b.	c #E8DB88",
"c.	c #EADE88",
"d.	c #ECDF8D",
"e.	c #ECE18E",
"f.	c #D6CC80",
"g.	c #E3D689",
"h.	c #E9DD90",
"i.	c #DCD593",
"j.	c #B0AC86",
"k.	c #807E70",
"l.	c #878368",
"m.	c #C1BB90",
"n.	c #989792",
"o.	c #626161",
"p.	c #635F59",
"q.	c #7E7F75",
"r.	c #989899",
"s.	c #454546",
"t.	c #070709",
"u.	c #08080A",
"v.	c #585750",
"w.	c #737055",
"x.	c #D5CB85",
"y.	c #E0D37F",
"z.	c #DFD382",
"A.	c #DDD181",
"B.	c #D3C87D",
"C.	c #E0D482",
"D.	c #E3D584",
"E.	c #E4D783",
"F.	c #E7D884",
"G.	c #E7D987",
"H.	c #E7DA8B",
"I.	c #D0C27D",
"J.	c #CCC280",
"K.	c #AFA97D",
"L.	c #59574A",
"M.	c #091212",
"N.	c #081211",
"O.	c #0A1212",
"P.	c #5D5D61",
"Q.	c #B0AD92",
"R.	c #75746B",
"S.	c #837A71",
"T.	c #8F8E8C",
"U.	c #060609",
"V.	c #070708",
"W.	c #070609",
"X.	c #2F2B27",
"Y.	c #3E3D33",
"Z.	c #484637",
"`.	c #A59D6E",
" +	c #C9BF83",
".+	c #D7CC84",
"++	c #D0C67F",
"@+	c #DCD089",
"#+	c #DCCD8B",
"$+	c #D6C887",
"%+	c #CFC387",
"&+	c #C2B980",
"*+	c #B1A878",
"=+	c #A0986D",
"-+	c #5E5844",
";+	c #3D3E3C",
">+	c #0E1415",
",+	c #3F3F3E",
"'+	c #7B7979",
")+	c #494A48",
"!+	c #0F1615",
"~+	c #6F6D60",
"{+	c #948D7E",
"]+	c #666666",
"^+	c #656563",
"/+	c #777878",
"(+	c #4C4C4D",
"_+	c #373636",
":+	c #514E43",
"<+	c #45433B",
"[+	c #424137",
"}+	c #363530",
"|+	c #2A2827",
"1+	c #898573",
"2+	c #9B957E",
"3+	c #98917C",
"4+	c #8D8672",
"5+	c #8C866E",
"6+	c #908B74",
"7+	c #8C8671",
"8+	c #8C8771",
"9+	c #86806B",
"0+	c #746F5A",
"a+	c #5E5A45",
"b+	c #504B3A",
"c+	c #837D62",
"d+	c #333435",
"e+	c #2A2D2E",
"f+	c #5D5A5A",
"g+	c #B3AC96",
"h+	c #ABA27C",
"i+	c #BCB5A0",
"j+	c #6B6A68",
"k+	c #34332D",
"l+	c #A09D91",
"m+	c #6F6F6F",
"n+	c #7F7D79",
"o+	c #9D9770",
"p+	c #8C897E",
"q+	c #96927A",
"r+	c #9D977E",
"s+	c #2C2D2E",
"t+	c #39393A",
"u+	c #3D3D3E",
"v+	c #3D3D3D",
"w+	c #3A3A39",
"x+	c #3E3E3B",
"y+	c #43433F",
"z+	c #504F49",
"A+	c #58564F",
"B+	c #62605B",
"C+	c #6D6C61",
"D+	c #777264",
"E+	c #807C6F",
"F+	c #656454",
"G+	c #434446",
"H+	c #25292B",
"I+	c #9F9A91",
"J+	c #B0A67C",
"K+	c #807F75",
"L+	c #A69C74",
"M+	c #A3A094",
"N+	c #484848",
"O+	c #616160",
"P+	c #4F4F4F",
"Q+	c #72726E",
"R+	c #9E987E",
"S+	c #BAB39B",
"T+	c #B4AD8C",
"U+	c #9F9A8B",
"V+	c #454645",
"W+	c #49494A",
"X+	c #4F4F51",
"Y+	c #3D3E3F",
"Z+	c #A19E93",
"`+	c #B4AA7D",
" @	c #CBC5B0",
".@	c #AAA079",
"+@	c #98948C",
"@@	c #4E4F4D",
"#@	c #8A8783",
"$@	c #9C9886",
"%@	c #9A9688",
"&@	c #716F69",
"*@	c #4C4B4C",
"=@	c #565755",
"-@	c #ABA69D",
";@	c #ADA994",
">@	c #A19A92",
",@	c #5A5957",
"'@	c #5C5C5C",
")@	c #FDFDFD",
"!@	c #8B8B8B",
"                                              . . . .       . . ",
"+ + + + + + + + + + + + + + + + + + + + + + + + + + + + + + + + ",
"@ @ @ @ @ @ @ @ @ @ @ @ @ @ @ @ @ @ @ @ @ @ @ @ @ @ @ @ @ @ @ @ ",
"                                                                ",
"                                                                ",
"                                                                ",
"                                                                ",
"                                                                ",
"                                                                ",
"            # $ % & * = - ; > , ' ) !                           ",
"          ~ { ] ^ / ( _ : < [ } | 1 2 3                         ",
"        4 5 6 7 8 9 0 a b c d e f g h i #                       ",
"      j k l m n o p b b b q r b b s t u v                       ",
"    w x y z A B C D E F G H I J K L M N O P Q R S T U V         ",
"    W X Y Z `  ...+.@.#.$.%.&.*.=.-.;.>.,.'.).!.~.{.].^./.(._.  ",
"  :.<.[.}.|.1.2.3.4.5.6.7.8.9.0.a.b.c.d.e.f.g.h.i.j.k.l.m.n.o.  ",
"p.q.r.s.t.t.t.u.v.w.x.y.z.A.B.C.D.E.F.G.H.I.J.K.L.M.N.O.P.Q.R.  ",
"S.T.$ U.V.t.t.W.X.Y.Z.`. +.+++@+#+$+%+&+*+=+-+;+>+,+'+)+!+~+{+]+",
"^+/+(+_+:+<+[+}+|+1+2+3+4+5+6+7+8+9+0+a+b+c+d+e+f+g+h+i+j+k+l+m+",
"      n+o+p+q+r+s+t+u+v+w+x+y+z+A+B+C+D+E+F+G+H+I+J+K+L+M+N+O+P+",
"      Q+R+S+T+U+V+                        W+X+Y+Z+`+ @.@+@.     ",
"      @@#@$@%@&@*@                              =@-@;@>@,@      ",
"                                                                ",
"                                                                ",
"                                                                ",
"                                                                ",
"                                                                ",
"                                                                ",
"'@'@'@'@'@'@'@'@'@'@'@'@'@'@'@'@'@'@'@'@'@'@'@'@'@'@'@'@'@'@'@'@",
")@)@)@)@)@)@)@)@)@)@)@)@)@)@)@)@)@)@)@)@)@)@)@)@)@)@)@)@)@)@)@)@",
"!@!@!@!@!@!@!@!@!@!@!@!@!@!@!@!@!@!@!@!@!@!@!@!@!@!@!@!@!@!@!@!@",
"                                                  .             "};
