/* XPM */
static char * 2cv_left_xpm[] = {
"32 32 310 2",
"  	c #4B4B4B",
". 	c #4C4C4C",
"+ 	c #D8D8D8",
"@ 	c #CACACA",
"# 	c #545454",
"$ 	c #5B5B5C",
"% 	c #545455",
"& 	c #555556",
"* 	c #575857",
"= 	c #535353",
"- 	c #4E4E4F",
"; 	c #6D6D68",
"> 	c #999787",
", 	c #B5B49C",
"' 	c #B4B097",
") 	c #B4B196",
"! 	c #ABA793",
"~ 	c #B8B49F",
"{ 	c #9D9B8C",
"] 	c #6C6B6D",
"^ 	c #6E6E70",
"/ 	c #7A7A7B",
"( 	c #616161",
"_ 	c #979780",
": 	c #ABA98B",
"< 	c #898871",
"[ 	c #55534B",
"} 	c #939076",
"| 	c #9C9976",
"1 	c #474642",
"2 	c #44433E",
"3 	c #7B7967",
"4 	c #ACAB8F",
"5 	c #6B6B60",
"6 	c #353534",
"7 	c #595959",
"8 	c #656564",
"9 	c #4F4F4F",
"0 	c #848475",
"a 	c #ACAA8B",
"b 	c #7D7B75",
"c 	c #535352",
"d 	c #565656",
"e 	c #949381",
"f 	c #9B9878",
"g 	c #4B4B4A",
"h 	c #4F4F42",
"i 	c #ACAD8D",
"j 	c #585855",
"k 	c #3E3E3D",
"l 	c #4C4D48",
"m 	c #70706F",
"n 	c #525252",
"o 	c #5E5D5B",
"p 	c #B8B692",
"q 	c #676355",
"r 	c #807E6A",
"s 	c #989472",
"t 	c #4F4F48",
"u 	c #858467",
"v 	c #898877",
"w 	c #717270",
"x 	c #656565",
"y 	c #7D7C7E",
"z 	c #4E4E4E",
"A 	c #565653",
"B 	c #868472",
"C 	c #A8A785",
"D 	c #B7B48E",
"E 	c #BCB993",
"F 	c #C3BF94",
"G 	c #BBB590",
"H 	c #C0B993",
"I 	c #C9C58E",
"J 	c #AFAA82",
"K 	c #B0AC84",
"L 	c #B3B087",
"M 	c #B6B28B",
"N 	c #C2BC93",
"O 	c #C6BF86",
"P 	c #BEB78B",
"Q 	c #BEB88B",
"R 	c #BFB98C",
"S 	c #C5BF90",
"T 	c #CECB9B",
"U 	c #868470",
"V 	c #5C5C5D",
"W 	c #646467",
"X 	c #6B6B6E",
"Y 	c #929293",
"Z 	c #72736F",
"` 	c #4A4A4A",
" .	c #8E8F8D",
"..	c #C4C1A4",
"+.	c #E6E4B3",
"@.	c #E2DDAA",
"#.	c #DFD8A4",
"$.	c #D7CF95",
"%.	c #CDC685",
"&.	c #CDC57F",
"*.	c #DCD488",
"=.	c #D3C97E",
"-.	c #DFD682",
";.	c #E2D886",
">.	c #E6DB8B",
",.	c #E6DC8C",
"'.	c #E6DD8B",
").	c #D5CB7F",
"!.	c #DBD187",
"~.	c #E8DF90",
"{.	c #E8E091",
"].	c #E8E191",
"^.	c #EBE192",
"/.	c #CCC488",
"(.	c #504D43",
"_.	c #5B5B5D",
":.	c #767677",
"<.	c #6F6F71",
"[.	c #7D7D7E",
"}.	c #868683",
"|.	c #585854",
"1.	c #454545",
"2.	c #484848",
"3.	c #78766F",
"4.	c #B0AE87",
"5.	c #878573",
"6.	c #615F54",
"7.	c #87856F",
"8.	c #BEB87E",
"9.	c #DBD184",
"0.	c #DBCF7D",
"a.	c #D9CE80",
"b.	c #D9CE7D",
"c.	c #DFD27E",
"d.	c #DFD37F",
"e.	c #DFD581",
"f.	c #E0D682",
"g.	c #E2D881",
"h.	c #E3D981",
"i.	c #D8CD7F",
"j.	c #E5DA8B",
"k.	c #E6DA8B",
"l.	c #E7DC8C",
"m.	c #E6DD8C",
"n.	c #999473",
"o.	c #5C5C5C",
"p.	c #434344",
"q.	c #1A1A1C",
"r.	c #4B4B4D",
"s.	c #868688",
"t.	c #868586",
"u.	c #6F6F67",
"v.	c #3A3A3A",
"w.	c #3E3E3E",
"x.	c #61605C",
"y.	c #BFBB9D",
"z.	c #595A58",
"A.	c #141415",
"B.	c #121212",
"C.	c #121111",
"D.	c #312F2C",
"E.	c #95906D",
"F.	c #CBC285",
"G.	c #CEC27C",
"H.	c #D5CA7C",
"I.	c #DCCF7C",
"J.	c #DACE7B",
"K.	c #DACF7A",
"L.	c #DCD17B",
"M.	c #DED27C",
"N.	c #DED57D",
"O.	c #D3C97B",
"P.	c #E1D587",
"Q.	c #E3D687",
"R.	c #DED58B",
"S.	c #989368",
"T.	c #575445",
"U.	c #2F2E2F",
"V.	c #050507",
"W.	c #2F2F30",
"X.	c #737471",
"Y.	c #6D6658",
"Z.	c #353535",
"`.	c #D3CEC9",
" +	c #827C6A",
".+	c #121414",
"++	c #40403F",
"@+	c #7F7E78",
"#+	c #656461",
"$+	c #1E1E1E",
"%+	c #393734",
"&+	c #454336",
"*+	c #898560",
"=+	c #A0996C",
"-+	c #B0A774",
";+	c #BAAF78",
">+	c #C7BC7D",
",+	c #CCC17C",
"'+	c #D0C47E",
")+	c #D4C67E",
"!+	c #C9BD7A",
"~+	c #C8C07E",
"{+	c #A7A070",
"]+	c #5D5845",
"^+	c #191917",
"/+	c #57534B",
"(+	c #060508",
"_+	c #050506",
":+	c #050508",
"<+	c #454546",
"[+	c #777778",
"}+	c #71685F",
"|+	c #3F3F3F",
"1+	c #A7A59F",
"2+	c #403E33",
"3+	c #444344",
"4+	c #AFAA96",
"5+	c #B0A67A",
"6+	c #AEA581",
"7+	c #85837A",
"8+	c #191A1C",
"9+	c #3A3C3D",
"0+	c #565444",
"a+	c #716C52",
"b+	c #6E6A54",
"c+	c #75735A",
"d+	c #7A7761",
"e+	c #807A66",
"f+	c #857F6B",
"g+	c #908A74",
"h+	c #99947C",
"i+	c #98927C",
"j+	c #95917B",
"k+	c #928D75",
"l+	c #938E74",
"m+	c #4F4C43",
"n+	c #3A3834",
"o+	c #504C37",
"p+	c #5F5B4A",
"q+	c #635D46",
"r+	c #595752",
"s+	c #333333",
"t+	c #4F4F4D",
"u+	c #505050",
"v+	c #434343",
"w+	c #84837D",
"x+	c #AA9E6F",
"y+	c #878379",
"z+	c #A09871",
"A+	c #9C9685",
"B+	c #242425",
"C+	c #212322",
"D+	c #43403B",
"E+	c #7B776A",
"F+	c #6F6E62",
"G+	c #5A5A4E",
"H+	c #45453D",
"I+	c #32312D",
"J+	c #262524",
"K+	c #222121",
"L+	c #232422",
"M+	c #252624",
"N+	c #20211F",
"O+	c #1D1D1B",
"P+	c #1A1A18",
"Q+	c #1F1F21",
"R+	c #928D81",
"S+	c #9D9165",
"T+	c #898881",
"U+	c #A8996D",
"V+	c #A29C8D",
"W+	c #2B2B2A",
"X+	c #2C2C2C",
"Y+	c #73726F",
"Z+	c #A19877",
"`+	c #C4BA99",
" @	c #B5AC81",
".@	c #928C81",
"+@	c #212021",
"@@	c #1D1D1D",
"#@	c #262525",
"$@	c #1F1F1F",
"%@	c #212121",
"&@	c #202020",
"*@	c #94908A",
"=@	c #B5AA7C",
"-@	c #D3CBAC",
";@	c #AFA272",
">@	c #959289",
",@	c #2B2B2B",
"'@	c #474747",
")@	c #444444",
"!@	c #86847F",
"~@	c #9C9686",
"{@	c #989388",
"]@	c #555551",
"^@	c #282828",
"/@	c #2E2E2E",
"(@	c #323232",
"_@	c #343434",
":@	c #363636",
"<@	c #373737",
"[@	c #383838",
"}@	c #3E3D3D",
"|@	c #A29D91",
"1@	c #A39E89",
"2@	c #A19D8F",
"3@	c #464644",
"4@	c #FDFDFD",
"5@	c #8B8B8B",
"                                              . . . .       . . ",
"+ + + + + + + + + + + + + + + + + + + + + + + + + + + + + + + + ",
"@ @ @ @ @ @ @ @ @ @ @ @ @ @ @ @ @ @ @ @ @ @ @ @ @ @ @ @ @ @ @ @ ",
"                                                                ",
"                                                                ",
"                                                                ",
"                                                                ",
"                                                                ",
"                              . # $ % & * = .                   ",
"                        - ; > , ' ) ! ~ { ] ^ / ( .             ",
"                        _ : < [ } | 1 2 3 4 5 6 7 8 9           ",
"                      0 a b c d e f     g h i j k l m n         ",
"                    o p q .     r s       t u v # w x y z       ",
"    . A B C D E F G H I J K L M N O P Q R S T U V W X Y Z `     ",
".  ...+.@.#.$.%.&.*.=.-.;.>.,.'.).!.~.{.].^./.(._.:.<.[.}.|.1.2.",
"9 3.4.5.6.7.8.9.0.a.b.c.d.e.f.g.h.i.j.k.l.m.n.o.p.q.r.s.t.u.v.w.",
"x.y.z.A.B.C.D.E.F.G.H.I.J.K.L.M.N.O.P.Q.R.S.T.U.V.V.V.W.[.X.Y.Z.",
"`. +.+++@+#+$+%+&+*+=+-+;+>+,+'+)+!+~+{+]+^+/+(+_+(+(+:+<+[+}+|+",
"1+2+3+4+5+6+7+8+9+0+a+b+c+d+e+f+g+h+i+j+k+l+m+n+o+p+q+r+s+  v.t+",
"u+v+w+x+y+z+A+B+C+D+E+F+G+H+I+J+K+L+M+N+O+P+Q+R+S+T+U+V+W+X+v.Z.",
"  ` Y+Z+`+ @.@+@@@#@$+$@$@$@$@$+$+$@$@%@&@$@&@*@=@-@;@>@,@'@    ",
"    )@!@~@{@]@^@/@(@_@:@<@[@[@[@[@[@[@[@[@:@(@}@|@1@2@3@v+      ",
"                                                                ",
"                                                                ",
"                                                                ",
"                                                                ",
"                                                                ",
"                                                                ",
"o.o.o.o.o.o.o.o.o.o.o.o.o.o.o.o.o.o.o.o.o.o.o.o.o.o.o.o.o.o.o.o.",
"4@4@4@4@4@4@4@4@4@4@4@4@4@4@4@4@4@4@4@4@4@4@4@4@4@4@4@4@4@4@4@4@",
"5@5@5@5@5@5@5@5@5@5@5@5@5@5@5@5@5@5@5@5@5@5@5@5@5@5@5@5@5@5@5@5@",
"                                                  .             "};
