/* XPM */
static char * 3_xpm[] = {
"32 32 14 1",
" 	c #4B4B4B",
".	c #4C4C4C",
"+	c #D8D8D8",
"@	c #CACACA",
"#	c #575757",
"$	c #EDEDED",
"%	c #FFFFFF",
"&	c #F6F6F6",
"*	c #818181",
"=	c #525252",
"-	c #4E4E4E",
";	c #5C5C5C",
">	c #FDFDFD",
",	c #8B8B8B",
"                       ....   ..",
"++++++++++++++++++++++++++++++++",
"@@@@@@@@@@@@@@@@@@@@@@@@@@@@@@@@",
"                                ",
"                                ",
"                                ",
"                                ",
"                                ",
"                                ",
"                                ",
"                                ",
"                                ",
"                                ",
"                                ",
"           .........            ",
"         #$%%%%%%%%&*           ",
"          ==========-           ",
"                                ",
"                                ",
"                                ",
"                                ",
"                                ",
"                                ",
"                                ",
"                                ",
"                                ",
"                                ",
"                                ",
";;;;;;;;;;;;;;;;;;;;;;;;;;;;;;;;",
">>>>>>>>>>>>>>>>>>>>>>>>>>>>>>>>",
",,,,,,,,,,,,,,,,,,,,,,,,,,,,,,,,",
"                         .      "};
