/* XPM */
static char * 4_xpm[] = {
"32 32 46 1",
" 	c #737373",
".	c #D0D0D0",
"+	c #626262",
"@	c #4B4B4B",
"#	c #747474",
"$	c #ECECEC",
"%	c #959595",
"&	c #525252",
"*	c #CFCFCF",
"=	c #D6D6D6",
"-	c #636363",
";	c #757575",
">	c #EDEDED",
",	c #969696",
"'	c #C4C4C4",
")	c #C5C5C5",
"!	c #BEBEBE",
"~	c #5F5F5F",
"{	c #5E5E5E",
"]	c #5D5D5D",
"^	c #4D4D4D",
"/	c #535353",
"(	c #4C4C4C",
"_	c #505050",
":	c #858585",
"<	c #555555",
"[	c #686868",
"}	c #DFDFDF",
"|	c #6B6B6B",
"1	c #EAEAEA",
"2	c #6E6E6E",
"3	c #4E4E4E",
"4	c #606060",
"5	c #6A6A6A",
"6	c #808080",
"7	c #E9E9E9",
"8	c #6D6D6D",
"9	c #C1C1C1",
"0	c #E8E8E8",
"a	c #EEEEEE",
"b	c #6C6C6C",
"c	c #767676",
"d	c #515151",
"e	c #888888",
"f	c #EFEFEF",
"g	c #949494",
" ..+@@@@@@@@@@@@@@@@@@@@@@@@#$%&",
"*=.-@@@@@@@@@@@@@@@@@@@@@@@@;>,&",
"')!~@@@@@@@@@@@@@@@@@@@@@@@@;>,&",
"{~]^@@@@@@@@@@@@@@@@@@@@@@@@;>,&",
"@@@@@@@@@@@@@@@@@@@@@@@@@@@@;>,&",
"@@@@@@@@@@@@@@@@@@@@@@@@@@@@;>,/",
"@@@@@@@@@@@@@@@@@@@@@@@@@@@(;>,/",
"@@@@@@@@@@@@@@@@@@@@@@@@@@@^;>,/",
"@@@@@@@@@@@@@@@@@@@@@@@@@@@^;>,&",
"@@@@@@@@@@@@@@@@@@@@@@@@@@@^;>,&",
"@@@@@@@@@@@@@@(_(@@@@@@@@@@^;>,&",
"@@@@@@@@@@@@@@/:<@@@@@@@@@@^;>,&",
"@@@@@@@@@@@@@@[}|(@@@@@@@@@^;>,&",
"@@@@@@@@@@@@@@|12(@@@@@@@@@^;>,&",
"@@@@@@@@@345||678@@@@@@@@@@^;>,&",
"@@@@@@@@^[90>>a>b@@@@@@@@@@^;>,&",
"@@@@@@@@@&5;ccc d@@@@@@@@@@^;>,&",
"@@@@@@@@@@^3333^(@@@@@@@@@@^;>,&",
"@@@@@@@@@@@@@@@@@@@@@@@@@@@^;>,&",
"@@@@@@@@@@@@@@@@@@@@@@@@@@@^;>,&",
"@@@@@@@@@@@@@@@@@@@@@@@@@@@^;>,&",
"@@@@@@@@@@@@@@@@@@@@@@@@@@@^;>,&",
"@@@@@@@@@@@@@@@@@@@@@@@@@@@^;>,&",
"@@@@@@@@@@@@@@@@@@@@@@@@@@@^;>,&",
"@@@@@@@@@@@@@@@@@@@@@@@@@@@^;>,&",
"@@@@@@@@@@@@@@@@@@@@@@@@@@@^;>,&",
"@@@@@@@@@@@@@@@@@@@@@@@@@@@^;>,&",
"@@@@(^^^^^^^^^^^^^^^^^^^^^^3;>,&",
"#;;;;;;;;;;;;;;;;;;;;;;;;;;;ea,&",
"$>>>>>>>>>>>>>>>>>>>>>>>>>>>af%/",
"%,,,,,,,,,,,,,,,,,,,,,,,,,,,,g:&",
"&&&&&&&&&&&&&&&&&&&&&&&&&&&&&&&@"};
