/* XPM */
static char * 6_xpm[] = {
"32 32 18 1",
" 	c #4B4B4B",
".	c #8B8B8B",
"+	c #FDFDFD",
"@	c #5C5C5C",
"#	c #CACACA",
"$	c #D8D8D8",
"%	c #4C4C4C",
"&	c #4E4E4E",
"*	c #5D5D5D",
"=	c #D1D1D1",
"-	c #FFFFFF",
";	c #F9F9F9",
">	c #F6F6F6",
",	c #818181",
"'	c #4D4D4D",
")	c #505050",
"!	c #525252",
"~	c #8C8C8C",
" .+@                         #$%",
" .+@                         #$$",
" .+@                         #$$",
" .+@                            ",
" .+@                            ",
" .+@                            ",
" .+@                            ",
" .+@                            ",
" .+@            %               ",
" .+@           &*               ",
" .+@          %@=               ",
" .+@          %*+               ",
" .+@          %*-               ",
" .+@          %*-               ",
" .+@          %*-%%%            ",
" .+@          %*-;+>,           ",
" .+@          %'))!!&           ",
" .+@                            ",
" .+@                            ",
" .+@                            ",
" .+@                            ",
" .+@                            ",
" .+@                            ",
" .+@                            ",
" .+@                            ",
" .+@                            ",
" .+@                            ",
" .+@                            ",
" .+@@@@@@@@@@@@@@@@@@@@@@@@@@@@@",
" .++++++++++++++++++++++++++++++",
" .~.............................",
"                         %      "};
