/* XPM */
static char * 7_xpm[] = {
"32 32 19 1",
" 	c #4B4B4B",
".	c #FDFDFD",
"+	c #5C5C5C",
"@	c #CACACA",
"#	c #D8D8D8",
"$	c #4C4C4C",
"%	c #4E4E4E",
"&	c #5D5D5D",
"*	c #4D4D4D",
"=	c #D1D1D1",
"-	c #575757",
";	c #595959",
">	c #FFFFFF",
",	c #545454",
"'	c #EBEBEB",
")	c #777777",
"!	c #EDEDED",
"~	c #525252",
"{	c #8B8B8B",
"  .+                         @#$",
"##.+                         @##",
"@@.+                         @#@",
"                                ",
"                                ",
"                                ",
"                                ",
"                                ",
"                $               ",
"               %&*              ",
"              $+=-              ",
"              $&.;              ",
"              $&>;              ",
"              $&>;              ",
"              $&>;              ",
"         ,'>>>>>)>>>>>!-        ",
"          ~~~~~~~~~~~~~         ",
"                                ",
"                                ",
"                                ",
"                                ",
"                                ",
"                                ",
"                                ",
"                                ",
"                                ",
"                                ",
"                                ",
"++++++++++++++++++++++++++++++++",
"................................",
"{{{{{{{{{{{{{{{{{{{{{{{{{{{{{{{{",
"                         $      "};
