/* XPM */
static char * 9_xpm[] = {
"32 32 53 1",
" 	c #525252",
".	c #535353",
"+	c #959595",
"@	c #969696",
"#	c #ECECEC",
"$	c #EDEDED",
"%	c #4B4B4B",
"&	c #4E4E4E",
"*	c #4C4C4C",
"=	c #4F4F4F",
"-	c #696969",
";	c #6F6F6F",
">	c #6D6D6D",
",	c #5A5A5A",
"'	c #D7D7D7",
")	c #E7E7E7",
"!	c #9F9F9F",
"~	c #EBEBEB",
"{	c #D5D5D5",
"]	c #676767",
"^	c #656565",
"/	c #6B6B6B",
"(	c #6C6C6C",
"_	c #858585",
":	c #E8E8E8",
"<	c #878787",
"[	c #737373",
"}	c #767676",
"|	c #727272",
"1	c #E9E9E9",
"2	c #757575",
"3	c #C1C1C1",
"4	c #6A6A6A",
"5	c #4D4D4D",
"6	c #515151",
"7	c #686868",
"8	c #5E5E5E",
"9	c #616161",
"0	c #565656",
"a	c #C5C5C5",
"b	c #CFCFCF",
"c	c #BEBEBE",
"d	c #575757",
"e	c #C9C9C9",
"f	c #C4C4C4",
"g	c #D6D6D6",
"h	c #595959",
"i	c #545454",
"j	c #F1F1F1",
"k	c #D4D4D4",
"l	c #CECECE",
"m	c #7A7A7A",
"n	c #636363",
"     ...                        ",
"+@@@@@@@@@@@@@@@@@@@@@@@@@@@@@@+",
"#$$$$$$$$$$$$$$$$$$$$$$$$$$$$$$#",
"%%%%%%%%%%%%%%%%%&%%%%%%%%%%%%%%",
"%%%%%%%%%%%%%%%%%*%%%%%%%%%%%%%%",
"%%%%%%%%%%%%%%%%%%%%%%%%%%%%%%%%",
"%%%%%%%%%%%%%%%%%%%%%%%%%%%%%%%%",
"%%%%%%%%%%%%%%%%%%%%%%%%%%%%%%%%",
"%%%%%%%%%%%%%%%%%%%%%%%%%%%%%%%%",
"%%%%%%%%%%%%%%%%%%%%%%%%%%%%%%%%",
"%%%%%%%%%%%%%%%%%%%%%%%%%%%%%%%%",
"%%%%%%%%%%%%%%%%%%%%%%%%%%%%%%%%",
"%%%%%%%%%%%%%%%%%%%%%%%%%%%%%%%%",
"%%%%%%%%%%%%%%%%%%%%%%%%%%%%%%%%",
"%%%%%%%%%*************%%%%%%%%%%",
"%%%%%%%%=-;;;;>,>;;;;-=%%%%%%%%%",
"%%%%%%%*-'#$$$)!)$$$~{]*%%%%%%%%",
"%%%%%%%%=^///(_:<>///^&%%%%%%%%%",
"%%%%%%%%%%%%%*[$}&%%%%%%%%%%%%%%",
"%%%%%%%%%%%%%*[$}&%%%%%%%%%%%%%%",
"%%%%%%%%%%%%%*|12&%%%%%%%%%%%%%%",
"%%%%%%%%%%%%%*]345%%%%%%%%%%%%%%",
"%%%%%%%%%%%%%%67 %%%%%%%%%%%%%%%",
"%%%%%%%%%%%%%%%5%%%%%%%%%%%%%%%%",
"%%%%%%%%%%%%%%%%%%%%%%%%%%%%%%%%",
"%%%%%%%%%%%%%%%%%%%%%%%%%%%%%%%%",
"%%%%%%%%%%%%%%%%%%%%%%%%%%%%%%%%",
"%%%%%%%%%%%%%%%%%%%%%%%%%%%%%%%%",
"8985%%%%%%%%%%%%%%%%%%%%%%%%5800",
"abcd%%%%%%%%%%%%%%%%%%%%%%%%.:ef",
"bgah%%%%%%%%%%%%%%%%%%%%%%%%ijkl",
"[bfh%%%%%%%%%%%%%%%%%%%%%%%%.~mn"};
