/* XPM */
static char * baobab_xpm[] = {
"67 89 31 1",
" 	c #FFFFFF",
".	c #DEDFE0",
"+	c #B4B9BA",
"@	c #C6AD9B",
"#	c #9DA09E",
"$	c #CCCDCC",
"%	c #838786",
"&	c #837241",
"*	c #6F5F39",
"=	c #968252",
"-	c #5D462C",
";	c #75736A",
">	c #483724",
",	c #46453F",
"'	c #34302A",
")	c #5B5D5A",
"!	c #2A241E",
"~	c #EEEEEE",
"{	c #F6F7F8",
"]	c #CF8D5F",
"^	c #905B39",
"/	c #A66D46",
"(	c #181512",
"_	c #BC7F53",
":	c #DD9B69",
"<	c #77492F",
"[	c #AA946B",
"}	c #ECAA74",
"|	c #F7BC84",
"1	c #4D5C1A",
"2	c #647326",
"                                                                   ",
"                                                                   ",
"                                                                   ",
"                                                                   ",
"                                                                   ",
"                                                                   ",
"                                                                   ",
"                                                                   ",
"                                                                   ",
"                                                                   ",
"                                                                   ",
"                                                                   ",
"                                                                   ",
"                                                                   ",
"                                                                   ",
"                                                                   ",
"                                                                   ",
"                               ..   .+@#+###+.                     ",
"                            $#%&*=#=&&&&*-***&.                    ",
"                       .+#=;*&-*-****&*&&&&&&+.                    ",
"                  .+##;&&&****-**&***->-->-*&=.   .                ",
"                .@%----&***&**&**,>',));%%%*&&&+$#;#%##..          ",
"              $;--->>-&*---&****&&*,';;%#+#)&**&&&&*****;+         ",
"             #,''-''>>!;;),,,-,,--**&&%%+%#%;**-*&-***%#+$.        ",
"             +;,,%%%#))#%,)#~#);,--)-;=%.~..$%-),*-****;...$.      ",
"          +#+,'',${{{~+$ ~$*%)#%%'>%&%;%#$  +~%'',*-**-***-*+      ",
"     $#%;,'''',,%+#+#.~;. {,>$@@%!;+$#;;+{  {$;+#)%),)>>***+.      ",
"     +''''''';!'>',#.{~#;{$>]@$.+!#~  {.~~  ~)#,%;+);;;,*%%%       ",
"     #),))''--*'')),~{ {;)!-# ~~+'% ~~~ {$#%&^@#$+# +.$+.  .       ",
"      $$.$#,;;,)!,,,#+###!!-/$~~#'-+$.+%,!!!-/].##                 ",
"           ++.#%;)',(,;!(((>^_&=>-^-_>!!'-%. $]@:$                 ",
"                .++ #)()%%((!>-^<-/^/'!!>/    #_[                  ",
"                      $   #!(((',!-^/!(!)&.    .                   ",
"                           '(((((!>/_;;..==@                       ",
"                           $(((!(!-/_$     .                       ",
"                            %(!!!><^<$                             ",
"                             ;!((</_/@                             ",
"                             %!!>'^]_$                             ",
"                             #''<-^}:@                             ",
"                             +''<</:}:                             ",
"                             $!!-^^_}:                             ",
"                             $''-^/_}:.                            ",
"                             +''<^/_}:.                            ",
"                             +''-^__}:$                            ",
"                             +''<^/_}}$                            ",
"                             +''-/__}}@                            ",
"                             +''-/__}}@                            ",
"                             +''-/__}}@                            ",
"                             #!'-/__:}:                            ",
"                             #''</_]}}:                            ",
"                             #''-/__:}:                            ",
"                             ,''</]]:}:                            ",
"                             ;''<_]]:}:                            ",
"                             #''-/]::}:                            ",
"                             #''-/]::|:                            ",
"                             #''-/]::|:                            ",
"                             #''-/]::}:                            ",
"                             #''</:::}:                            ",
"                             #'!-/]:]}:                            ",
"                             #''-/]::|:                            ",
"                             #''-/]::|:.                           ",
"                             #''-/]::}:.                           ",
"                             #''-/]::}}.                           ",
"                             +''</]::}}                            ",
"                             #''</]::}}                            ",
"                             #''</]::}:                            ",
"                             %''</]::}:.                           ",
"                             ,''</_::}:.                           ",
"                             ''!<_]]]}:.                           ",
"                             )'!<_]::}}                            ",
"                             ;'!</]]:}}.                           ",
"                             +'!-/]::|}$                           ",
"                             +'!-/_:}|}$                           ",
"                             #'!</_]:}}.                           ",
"                             #'!</]]]}}                            ",
"                             #''</_]]::                            ",
"                             ;!'*/__:}:$                           ",
"                             )!><=_]:}]$                           ",
"                             ,11*&=__:]@                           ",
"                            #111122*=_=-$                          ",
"                         .#*2111111222222;$.                       ",
"                       .;1222122221221122111+                      ",
"                       .+$$$.+@++++###+$. ...                      ",
"                                                                   ",
"                                                                   ",
"                                                                   ",
"                                                                   ",
"                                                                   ",
"                                                                   "};
